<svg width="100%" height="100%" viewBox="0 0 300 200" xmlns="http://www.w3.org/2000/svg"><defs><style>@keyframes blink-twice{0%,10%,20%,to{transform:scale(1,1)}15%,5%{transform:scale(1,.1)}}.sclera{fill:#fff;stroke:#333;stroke-width:3px}.pupil{fill:#000}</style></defs><rect width="100%" height="100%" fill="none" rx="10"/><path d="M70 190V88c0-38 30-63 80-63s80 25 80 55v110q-15-40-30-5-15-35-30-10-15-25-30 5-15-30-30-5-15-25-20 5-15-20-20 5Z" style="fill:none;stroke:#000;stroke-width:9px;stroke-linejoin:round;stroke-linecap:round"/><path d="M70 190V88c0-38 30-63 80-63s80 25 80 55v110q-15-40-30-5-15-35-30-10-15-25-30 5-15-30-30-5-15-25-20 5-15-20-20 5Z" style="fill:rgba(255,255,255,.85);stroke:#333;stroke-width:3px"/><path d="M145 115q0 10 30 0" style="fill:none;stroke:#333;stroke-width:3px;stroke-linecap:round"/><g style="transform-box:fill-box;transform-origin:center;animation:blink-twice 4s infinite cubic-bezier(.4,0,.2,1)"><g id="left-eye"><circle class="sclera" cx="110" cy="78" r="26"/><circle class="pupil" cx="118" cy="84" r="12"/></g><g id="right-eye"><circle class="sclera" cx="190" cy="78" r="26"/><circle class="pupil" cx="182" cy="84" r="12"/></g></g></svg>
