<svg xmlns="http://www.w3.org/2000/svg" viewBox="0 0 64 64">
  <defs>
    <linearGradient id="bg" x1="0%" y1="0%" x2="100%" y2="100%">
      <stop offset="0%" stop-color="#77d1ff" />
      <stop offset="100%" stop-color="#2f8cff" />
    </linearGradient>
  </defs>
  <rect width="64" height="64" rx="14" fill="url(#bg)" />
  <path
    d="M12 53V27c0-10 8-17 20-17s20 7 20 17v26c-3-4-6-3-8 0-2-4-5-4-8 0-3-4-6-4-9 0-2-3-5-4-8 0-2-2-4-2-7 0Z"
    fill="#ffffff"
    fill-opacity="0.96"
    stroke="#0e2a42"
    stroke-width="2.4"
    stroke-linecap="round"
    stroke-linejoin="round"
  />
  <circle cx="24" cy="30" r="6" fill="#ffffff" stroke="#0e2a42" stroke-width="1.35" />
  <circle cx="40" cy="30" r="6" fill="#ffffff" stroke="#0e2a42" stroke-width="1.35" />
  <circle cx="24" cy="30" r="2.4" fill="#0e2a42" />
  <circle cx="40" cy="30" r="2.4" fill="#0e2a42" />
  <path d="M29 42q3 2 6 0" fill="none" stroke="#0e2a42" stroke-width="2" stroke-linecap="round" />
</svg>
